<mxfile host="app.diagrams.net" agent="Mozilla/5.0 (Windows NT 10.0; Win64; x64) AppleWebKit/537.36 (KHTML, like Gecko) Chrome/141.0.0.0 Safari/537.36 Edg/141.0.0.0" version="28.2.5">
  <diagram name="Page-1" id="F3PEoYVlUHPQ0qvIEnyx">
    <mxGraphModel grid="1" page="1" gridSize="10" guides="1" tooltips="1" connect="1" arrows="1" fold="1" pageScale="1" pageWidth="850" pageHeight="1100" math="0" shadow="0">
      <root>
        <mxCell id="0" />
        <mxCell id="1" parent="0" />
        <mxCell id="mFcwVstsLp4ajjO8TYb6-1" value="โปรแกรมหลัก: main()" style="swimlane;startSize=23;" vertex="1" parent="1">
          <mxGeometry x="530" y="310" width="920" height="1130" as="geometry" />
        </mxCell>
        <mxCell id="mFcwVstsLp4ajjO8TYb6-2" value="เริ่มต้น" style="ellipse;whiteSpace=wrap;html=1;" vertex="1" parent="mFcwVstsLp4ajjO8TYb6-1">
          <mxGeometry x="400" y="40" width="120" height="80" as="geometry" />
        </mxCell>
        <mxCell id="mFcwVstsLp4ajjO8TYb6-3" value="" style="endArrow=classic;html=1;rounded=0;" edge="1" parent="mFcwVstsLp4ajjO8TYb6-1" source="mFcwVstsLp4ajjO8TYb6-2">
          <mxGeometry width="50" height="50" relative="1" as="geometry">
            <mxPoint x="460" y="120" as="sourcePoint" />
            <mxPoint x="460" y="160" as="targetPoint" />
          </mxGeometry>
        </mxCell>
        <mxCell id="mFcwVstsLp4ajjO8TYb6-4" value="ประกาศตัวแปร num1, num2" style="rounded=0;whiteSpace=wrap;html=1;" vertex="1" parent="mFcwVstsLp4ajjO8TYb6-1">
          <mxGeometry x="380" y="160" width="160" height="60" as="geometry" />
        </mxCell>
        <mxCell id="mFcwVstsLp4ajjO8TYb6-5" value="" style="endArrow=classic;html=1;rounded=0;" edge="1" parent="mFcwVstsLp4ajjO8TYb6-1" source="mFcwVstsLp4ajjO8TYb6-4">
          <mxGeometry width="50" height="50" relative="1" as="geometry">
            <mxPoint x="460" y="220" as="sourcePoint" />
            <mxPoint x="460" y="260" as="targetPoint" />
          </mxGeometry>
        </mxCell>
        <mxCell id="mFcwVstsLp4ajjO8TYb6-6" value="แสดงผล &quot;Enter num1 :&quot;" style="shape=parallelogram;perimeter=parallelogramPerimeter;whiteSpace=wrap;html=1;fixedSize=1;" vertex="1" parent="mFcwVstsLp4ajjO8TYb6-1">
          <mxGeometry x="380" y="260" width="160" height="60" as="geometry" />
        </mxCell>
        <mxCell id="mFcwVstsLp4ajjO8TYb6-7" value="" style="endArrow=classic;html=1;rounded=0;" edge="1" parent="mFcwVstsLp4ajjO8TYb6-1" source="mFcwVstsLp4ajjO8TYb6-6">
          <mxGeometry width="50" height="50" relative="1" as="geometry">
            <mxPoint x="460" y="320" as="sourcePoint" />
            <mxPoint x="460" y="360" as="targetPoint" />
          </mxGeometry>
        </mxCell>
        <mxCell id="mFcwVstsLp4ajjO8TYb6-8" value="รับค่า num1" style="shape=parallelogram;perimeter=parallelogramPerimeter;whiteSpace=wrap;html=1;fixedSize=1;" vertex="1" parent="mFcwVstsLp4ajjO8TYb6-1">
          <mxGeometry x="380" y="360" width="160" height="60" as="geometry" />
        </mxCell>
        <mxCell id="mFcwVstsLp4ajjO8TYb6-9" value="" style="endArrow=classic;html=1;rounded=0;" edge="1" parent="mFcwVstsLp4ajjO8TYb6-1" source="mFcwVstsLp4ajjO8TYb6-8">
          <mxGeometry width="50" height="50" relative="1" as="geometry">
            <mxPoint x="460" y="420" as="sourcePoint" />
            <mxPoint x="460" y="460" as="targetPoint" />
          </mxGeometry>
        </mxCell>
        <mxCell id="mFcwVstsLp4ajjO8TYb6-10" value="แสดงผล &quot;Enter num2 :&quot;" style="shape=parallelogram;perimeter=parallelogramPerimeter;whiteSpace=wrap;html=1;fixedSize=1;" vertex="1" parent="mFcwVstsLp4ajjO8TYb6-1">
          <mxGeometry x="380" y="460" width="160" height="60" as="geometry" />
        </mxCell>
        <mxCell id="mFcwVstsLp4ajjO8TYb6-11" value="" style="endArrow=classic;html=1;rounded=0;" edge="1" parent="mFcwVstsLp4ajjO8TYb6-1" source="mFcwVstsLp4ajjO8TYb6-10">
          <mxGeometry width="50" height="50" relative="1" as="geometry">
            <mxPoint x="460" y="520" as="sourcePoint" />
            <mxPoint x="460" y="560" as="targetPoint" />
          </mxGeometry>
        </mxCell>
        <mxCell id="mFcwVstsLp4ajjO8TYb6-12" value="รับค่า num2" style="shape=parallelogram;perimeter=parallelogramPerimeter;whiteSpace=wrap;html=1;fixedSize=1;" vertex="1" parent="mFcwVstsLp4ajjO8TYb6-1">
          <mxGeometry x="380" y="560" width="160" height="60" as="geometry" />
        </mxCell>
        <mxCell id="mFcwVstsLp4ajjO8TYb6-13" value="" style="endArrow=classic;html=1;rounded=0;" edge="1" parent="mFcwVstsLp4ajjO8TYb6-1" source="mFcwVstsLp4ajjO8TYb6-12">
          <mxGeometry width="50" height="50" relative="1" as="geometry">
            <mxPoint x="460" y="620" as="sourcePoint" />
            <mxPoint x="460" y="660" as="targetPoint" />
          </mxGeometry>
        </mxCell>
        <mxCell id="mFcwVstsLp4ajjO8TYb6-14" value="" style="edgeStyle=orthogonalEdgeStyle;rounded=0;orthogonalLoop=1;jettySize=auto;html=1;entryX=0.5;entryY=0;entryDx=0;entryDy=0;" edge="1" parent="mFcwVstsLp4ajjO8TYb6-1" source="mFcwVstsLp4ajjO8TYb6-15" target="mFcwVstsLp4ajjO8TYb6-22">
          <mxGeometry relative="1" as="geometry" />
        </mxCell>
        <mxCell id="mFcwVstsLp4ajjO8TYb6-15" value="ตั้งค่าตัวชี้ ptr1 = &amp;num1&lt;br&gt;ptr2 = &amp;num2" style="rounded=0;whiteSpace=wrap;html=1;" vertex="1" parent="mFcwVstsLp4ajjO8TYb6-1">
          <mxGeometry x="380" y="660" width="160" height="60" as="geometry" />
        </mxCell>
        <mxCell id="mFcwVstsLp4ajjO8TYb6-16" value="" style="edgeStyle=orthogonalEdgeStyle;rounded=0;orthogonalLoop=1;jettySize=auto;html=1;" edge="1" parent="mFcwVstsLp4ajjO8TYb6-1" source="mFcwVstsLp4ajjO8TYb6-17" target="mFcwVstsLp4ajjO8TYb6-22">
          <mxGeometry relative="1" as="geometry">
            <Array as="points">
              <mxPoint x="690" y="775" />
            </Array>
          </mxGeometry>
        </mxCell>
        <mxCell id="mFcwVstsLp4ajjO8TYb6-17" value="แสดงผล: ค่า num1, num2 ก่อนสลับ" style="shape=parallelogram;perimeter=parallelogramPerimeter;whiteSpace=wrap;html=1;fixedSize=1;" vertex="1" parent="mFcwVstsLp4ajjO8TYb6-1">
          <mxGeometry x="610" y="660" width="160" height="60" as="geometry" />
        </mxCell>
        <mxCell id="mFcwVstsLp4ajjO8TYb6-18" value="" style="edgeStyle=orthogonalEdgeStyle;rounded=0;orthogonalLoop=1;jettySize=auto;html=1;" edge="1" parent="mFcwVstsLp4ajjO8TYb6-1" source="mFcwVstsLp4ajjO8TYb6-19" target="mFcwVstsLp4ajjO8TYb6-20">
          <mxGeometry relative="1" as="geometry" />
        </mxCell>
        <mxCell id="mFcwVstsLp4ajjO8TYb6-19" value="แสดงผล: ค่า num1, num2 หลังสลับ" style="shape=parallelogram;perimeter=parallelogramPerimeter;whiteSpace=wrap;html=1;fixedSize=1;" vertex="1" parent="mFcwVstsLp4ajjO8TYb6-1">
          <mxGeometry x="380" y="930" width="160" height="60" as="geometry" />
        </mxCell>
        <mxCell id="mFcwVstsLp4ajjO8TYb6-20" value="สิ้นสุด" style="ellipse;whiteSpace=wrap;html=1;" vertex="1" parent="mFcwVstsLp4ajjO8TYb6-1">
          <mxGeometry x="400" y="1030" width="120" height="80" as="geometry" />
        </mxCell>
        <mxCell id="mFcwVstsLp4ajjO8TYb6-21" value="" style="edgeStyle=orthogonalEdgeStyle;rounded=0;orthogonalLoop=1;jettySize=auto;html=1;" edge="1" parent="mFcwVstsLp4ajjO8TYb6-1" source="mFcwVstsLp4ajjO8TYb6-22" target="mFcwVstsLp4ajjO8TYb6-24">
          <mxGeometry relative="1" as="geometry" />
        </mxCell>
        <mxCell id="mFcwVstsLp4ajjO8TYb6-22" value="" style="ellipse;whiteSpace=wrap;html=1;aspect=fixed;" vertex="1" parent="mFcwVstsLp4ajjO8TYb6-1">
          <mxGeometry x="445" y="760" width="30" height="30" as="geometry" />
        </mxCell>
        <mxCell id="mFcwVstsLp4ajjO8TYb6-23" value="" style="edgeStyle=orthogonalEdgeStyle;rounded=0;orthogonalLoop=1;jettySize=auto;html=1;" edge="1" parent="mFcwVstsLp4ajjO8TYb6-1" source="mFcwVstsLp4ajjO8TYb6-24" target="mFcwVstsLp4ajjO8TYb6-19">
          <mxGeometry relative="1" as="geometry" />
        </mxCell>
        <mxCell id="mFcwVstsLp4ajjO8TYb6-24" value="&lt;span&gt;เรียกใช้ฟังก์ชัน swapNumbers(ptr1, ptr2)&lt;/span&gt;" style="rounded=0;whiteSpace=wrap;html=1;" vertex="1" parent="mFcwVstsLp4ajjO8TYb6-1">
          <mxGeometry x="340" y="820" width="240" height="60" as="geometry" />
        </mxCell>
        <mxCell id="mFcwVstsLp4ajjO8TYb6-25" value="ฟังก์ชัน: swapNumbers(int *a, int *b)" style="swimlane;startSize=23;" vertex="1" parent="1">
          <mxGeometry x="1500" y="320" width="920" height="600" as="geometry" />
        </mxCell>
        <mxCell id="mFcwVstsLp4ajjO8TYb6-26" value="เริ่มต้นฟังก์ชัน (รับค่าตัวชี้ a, b)" style="ellipse;whiteSpace=wrap;html=1;" vertex="1" parent="mFcwVstsLp4ajjO8TYb6-25">
          <mxGeometry x="380" y="40" width="160" height="80" as="geometry" />
        </mxCell>
        <mxCell id="mFcwVstsLp4ajjO8TYb6-27" value="" style="endArrow=classic;html=1;rounded=0;" edge="1" parent="mFcwVstsLp4ajjO8TYb6-25" source="mFcwVstsLp4ajjO8TYb6-26">
          <mxGeometry width="50" height="50" relative="1" as="geometry">
            <mxPoint x="460" y="120" as="sourcePoint" />
            <mxPoint x="460" y="160" as="targetPoint" />
          </mxGeometry>
        </mxCell>
        <mxCell id="mFcwVstsLp4ajjO8TYb6-28" value="ตั้งค่า *a = *a + *b" style="rounded=0;whiteSpace=wrap;html=1;" vertex="1" parent="mFcwVstsLp4ajjO8TYb6-25">
          <mxGeometry x="380" y="160" width="160" height="60" as="geometry" />
        </mxCell>
        <mxCell id="mFcwVstsLp4ajjO8TYb6-29" value="" style="endArrow=classic;html=1;rounded=0;" edge="1" parent="mFcwVstsLp4ajjO8TYb6-25" source="mFcwVstsLp4ajjO8TYb6-28">
          <mxGeometry width="50" height="50" relative="1" as="geometry">
            <mxPoint x="460" y="220" as="sourcePoint" />
            <mxPoint x="460" y="260" as="targetPoint" />
          </mxGeometry>
        </mxCell>
        <mxCell id="mFcwVstsLp4ajjO8TYb6-30" value="ตั้งค่า *b = *a - *b" style="rounded=0;whiteSpace=wrap;html=1;" vertex="1" parent="mFcwVstsLp4ajjO8TYb6-25">
          <mxGeometry x="380" y="260" width="160" height="60" as="geometry" />
        </mxCell>
        <mxCell id="mFcwVstsLp4ajjO8TYb6-31" value="" style="endArrow=classic;html=1;rounded=0;" edge="1" parent="mFcwVstsLp4ajjO8TYb6-25" source="mFcwVstsLp4ajjO8TYb6-30">
          <mxGeometry width="50" height="50" relative="1" as="geometry">
            <mxPoint x="460" y="320" as="sourcePoint" />
            <mxPoint x="460" y="360" as="targetPoint" />
          </mxGeometry>
        </mxCell>
        <mxCell id="mFcwVstsLp4ajjO8TYb6-32" value="ตั้งค่า *a = *a - *b" style="rounded=0;whiteSpace=wrap;html=1;" vertex="1" parent="mFcwVstsLp4ajjO8TYb6-25">
          <mxGeometry x="380" y="360" width="160" height="60" as="geometry" />
        </mxCell>
        <mxCell id="mFcwVstsLp4ajjO8TYb6-33" value="" style="endArrow=classic;html=1;rounded=0;" edge="1" parent="mFcwVstsLp4ajjO8TYb6-25" source="mFcwVstsLp4ajjO8TYb6-32">
          <mxGeometry width="50" height="50" relative="1" as="geometry">
            <mxPoint x="460" y="420" as="sourcePoint" />
            <mxPoint x="460" y="460" as="targetPoint" />
          </mxGeometry>
        </mxCell>
        <mxCell id="mFcwVstsLp4ajjO8TYb6-34" value="จบฟังก์ชัน" style="ellipse;whiteSpace=wrap;html=1;" vertex="1" parent="mFcwVstsLp4ajjO8TYb6-25">
          <mxGeometry x="400" y="460" width="120" height="80" as="geometry" />
        </mxCell>
      </root>
    </mxGraphModel>
  </diagram>
</mxfile>
